<?xml version="1.0" encoding="utf-8"?>
<!-- Generator: Adobe Illustrator 16.0.0, SVG Export Plug-In . SVG Version: 6.00 Build 0)  -->
<!DOCTYPE svg PUBLIC "-//W3C//DTD SVG 1.1//EN" "http://www.w3.org/Graphics/SVG/1.1/DTD/svg11.dtd">
<svg version="1.1" id="Слой_1" xmlns="http://www.w3.org/2000/svg" xmlns:xlink="http://www.w3.org/1999/xlink" x="0px" y="0px"
	 width="157.363px" height="28px" viewBox="0 0 157.363 28" enable-background="new 0 0 157.363 28" xml:space="preserve">
<g>
	<g>
		<path fill-rule="evenodd" clip-rule="evenodd" fill="#009DC5" d="M5.476,21.903L5.476,21.903c-2.459,0-4.329-1.503-4.973-3.794
			C0.235,17.126,0.063,16.061,0,14.986v-1.834c0.03-0.444,0.076-0.879,0.147-1.304c0.07-0.492,0.197-1.035,0.393-1.671
			C3.034,1.563,13.626-3.26,22.264,2.53c-4.6-0.648-10.326,0.355-11.248,7.372c-0.098,0.755-0.127,1.753-0.139,2.821
			c0.045,1.251,0.002,2.522,0.002,3.774C10.879,19.469,8.449,21.903,5.476,21.903z"/>
		<path fill-rule="evenodd" clip-rule="evenodd" fill="#004994" d="M22.506,6.098L22.506,6.098c2.46,0,4.324,1.503,4.977,3.793
			c0.522,1.953,0.682,4.23,0.349,6.259c-0.065,0.495-0.193,1.039-0.39,1.675c-2.493,8.612-13.089,13.437-21.726,7.645
			c4.604,0.649,10.324-0.353,11.251-7.37c0.097-0.753,0.126-1.755,0.139-2.824c-0.048-1.25-0.001-2.519-0.001-3.77
			C17.104,8.532,19.535,6.098,22.506,6.098z"/>
	</g>
	<g>
		<path fill-rule="evenodd" clip-rule="evenodd" fill="#004994" d="M157.077,16.913c-0.035,0.067-0.072,0.134-0.109,0.199
			c-0.207,0.331-0.484,0.626-0.83,0.879c-0.084,0.09-0.248,0.171-0.364,0.232c-0.123,0.072-0.248,0.136-0.396,0.195
			c-0.689,0.299-1.527,0.451-2.508,0.451h-6.655v5.406h-3.386V9.293l9.896,0.001c0.444-0.012,1.633,0.149,1.765,0.181
			c0.398,0,1.11,0.36,1.445,0.562c0.42,0.291,0.777,0.57,1.053,1.012c0.234,0.396,0.362,0.836,0.376,1.331v0.022v2.936
			C157.338,15.912,157.338,16.396,157.077,16.913L157.077,16.913z M146.214,16.399h5.752c0.793,0,1.395-0.143,1.805-0.426
			c0.448-0.307,0.67-0.759,0.67-1.358v-1.161v-0.002c0-0.55-0.222-0.961-0.66-1.239c-0.393-0.255-0.978-0.381-1.738-0.382h-0.004
			h-5.824V16.399z"/>
		<path fill-rule="evenodd" clip-rule="evenodd" fill="#004994" d="M139.851,18.071h-9.042v2.143l0,0
			c0,0.434,0.162,0.756,0.495,0.967c0.369,0.24,0.943,0.357,1.719,0.357h7.389h0.286v0.286v2.099v0.283h-0.286h-8.164v0.001h-0.006
			v-0.001c-0.725,0-1.372-0.064-1.938-0.19c-0.104-0.023-0.192-0.045-0.273-0.066c-0.465-0.127-0.871-0.295-1.228-0.517
			l-0.002-0.003c-0.469-0.297-0.824-0.661-1.062-1.089c-0.237-0.432-0.357-0.919-0.357-1.463v-8.098
			c0-1.085,0.419-1.944,1.259-2.574l0.002-0.003v0c0.115-0.084,0.243-0.164,0.368-0.237c0.133-0.079,0.264-0.146,0.406-0.203
			c0.702-0.311,1.559-0.468,2.568-0.468h8.426h0.286V9.58v2.099v0.284h-0.286h-7.41c-0.773,0-1.339,0.117-1.704,0.348
			c-0.328,0.208-0.488,0.524-0.488,0.946v2.175h9.042h0.288v0.283v2.071v0.286H139.851z"/>
		<path fill-rule="evenodd" clip-rule="evenodd" fill="#004994" d="M65.308,20.142v-6.699v-0.005h0.006
			c0-0.291-0.045-0.538-0.125-0.737h-0.004c-0.019-0.038-0.029-0.068-0.041-0.09l0,0c-0.074-0.135-0.171-0.247-0.293-0.33l0,0
			c-0.166-0.11-0.393-0.198-0.686-0.255c-0.297-0.061-0.667-0.094-1.105-0.094h-2.997h-0.009V11.93c-0.44,0-0.814,0.032-1.125,0.096
			c-0.037,0.009-0.089,0.02-0.14,0.032l0,0c-0.226,0.054-0.405,0.133-0.543,0.224l0,0h-0.005l0,0
			c-0.042,0.028-0.08,0.059-0.111,0.094c-0.033,0.03-0.069,0.068-0.102,0.108c-0.16,0.223-0.248,0.542-0.248,0.959v6.642v0.004l0,0
			c0,0.251,0.046,0.473,0.134,0.665c0.017,0.03,0.036,0.058,0.053,0.086c0.08,0.145,0.194,0.271,0.349,0.379l0,0
			c0.145,0.099,0.35,0.178,0.624,0.232c0.304,0.059,0.677,0.086,1.123,0.086h2.997c0.427,0,0.793-0.027,1.095-0.086
			c0.287-0.055,0.515-0.139,0.688-0.242c0.154-0.096,0.269-0.226,0.347-0.396C65.269,20.637,65.308,20.413,65.308,20.142
			L65.308,20.142z M68.697,20.66v0.003l0,0c0,1.186-0.44,2.08-1.3,2.675c-0.83,0.579-2.054,0.868-3.686,0.868v0.001l0,0h-4.328
			h-0.007v-0.001c-0.775,0-1.463-0.06-2.04-0.186c-0.088-0.021-0.182-0.043-0.279-0.067c-0.475-0.124-0.879-0.293-1.216-0.508
			l-0.005-0.001l-0.005-0.001l0,0c-0.135-0.089-0.261-0.181-0.373-0.279l0,0c-0.122-0.1-0.23-0.208-0.327-0.316
			c-0.521-0.576-0.775-1.296-0.775-2.157l0,0v-7.853l0,0l0,0l0,0c0-0.593,0.127-1.122,0.378-1.586l0,0
			c0.039-0.076,0.088-0.15,0.135-0.224c0.242-0.367,0.576-0.687,0.988-0.962l0,0c0.395-0.272,0.889-0.473,1.485-0.604
			c0.584-0.13,1.264-0.195,2.041-0.195h4.355h0.004l0,0c1.615,0.001,2.836,0.293,3.66,0.875c0.86,0.606,1.294,1.505,1.294,2.698l0,0
			l0,0V20.66z"/>
		<path fill-rule="evenodd" clip-rule="evenodd" fill="#004994" d="M125.076,24.282h-2.729h-0.288v-0.286V13.884l-4.508,9.001v0.003
			l0,0c-0.076,0.148-0.151,0.284-0.234,0.413l0,0c-0.079,0.132-0.167,0.248-0.259,0.355c-0.492,0.578-1.09,0.866-1.812,0.866h-0.005
			V24.52c-0.299,0-0.562-0.04-0.806-0.12c-0.085-0.026-0.163-0.059-0.237-0.095l0,0c-0.156-0.077-0.302-0.168-0.434-0.279
			l-0.016-0.016l0,0l0,0c-0.025-0.028-0.063-0.062-0.095-0.102l-0.003,0c-0.039-0.043-0.067-0.08-0.1-0.115
			c-0.158-0.204-0.322-0.476-0.5-0.818l-0.002-0.002l-4.624-9.104v10.129v0.286h-0.284h-2.726h-0.282v-0.286V11.478v-0.003l0,0
			c0-0.316,0.061-0.605,0.185-0.867v-0.004c0.019-0.037,0.038-0.08,0.074-0.125c0.118-0.214,0.28-0.408,0.483-0.578l0,0
			c0.249-0.204,0.535-0.356,0.872-0.457c0.329-0.1,0.699-0.15,1.108-0.15h0.007v0.001c0.623,0,1.158,0.126,1.597,0.373
			c0.072,0.038,0.145,0.082,0.212,0.131c0.351,0.246,0.621,0.579,0.825,0.993l0,0l4.722,9.673l4.801-9.688h0.002
			c0.256-0.502,0.6-0.881,1.039-1.135c0.436-0.251,0.961-0.375,1.568-0.375c0.859,0,1.526,0.209,2.005,0.623l0,0
			c0.238,0.211,0.418,0.454,0.542,0.729l0,0c0.122,0.274,0.181,0.576,0.181,0.904v12.475v0.286H125.076z"/>
		<path fill-rule="evenodd" clip-rule="evenodd" fill="#004994" d="M88.512,9.399h2.729h0.283v0.281v10.647l6.081-9.323l0,0
			c0.199-0.311,0.373-0.57,0.529-0.768c0.157-0.213,0.301-0.367,0.417-0.464l0,0l0.004-0.002l0,0
			c0.057-0.048,0.124-0.093,0.193-0.134c0.066-0.043,0.138-0.078,0.208-0.113c0.376-0.173,0.834-0.259,1.39-0.259h0.002l0,0
			c0.842,0.001,1.486,0.201,1.926,0.599c0.45,0.405,0.677,0.999,0.677,1.781l0,0v0.005v12.303v0.285h-0.285H99.94h-0.286v-0.285
			V13.341l-6.135,9.342v0.003l-0.002,0.006l0,0c-0.059,0.093-0.117,0.178-0.17,0.253c-0.047,0.079-0.102,0.155-0.148,0.226
			c-0.262,0.376-0.462,0.627-0.601,0.738l0,0c-0.216,0.18-0.472,0.314-0.773,0.403c-0.296,0.081-0.622,0.124-0.988,0.124l0,0
			c-0.799,0-1.443-0.224-1.923-0.674l0,0c-0.228-0.204-0.398-0.436-0.517-0.702c-0.116-0.26-0.172-0.548-0.172-0.865l0,0V9.681
			V9.399H88.512z"/>
		<path fill-rule="evenodd" clip-rule="evenodd" fill="#004994" d="M39.581,9.213c0.617-0.064,7.634-0.039,9.477-0.032l0.433,0.003
			V9.181c0.857,0,1.522,0.214,2.002,0.627h0.003c0.236,0.211,0.416,0.455,0.538,0.729c0.123,0.274,0.182,0.571,0.182,0.899v12.478
			v0.284h-0.279h-2.729h-0.285v-0.284V11.918h-8.755v11.996v0.284h-0.287h-2.727h-0.284v-0.284V11.392v-0.001l0,0
			c0-0.312,0.064-0.603,0.191-0.868v-0.001c0.015-0.036,0.038-0.079,0.064-0.127c0.122-0.211,0.286-0.404,0.485-0.575l0,0
			c0.245-0.207,0.541-0.358,0.876-0.461C38.807,9.262,39.171,9.214,39.581,9.213z"/>
		<path fill-rule="evenodd" clip-rule="evenodd" fill="#004994" d="M73.675,9.213c0.623-0.064,7.313-0.039,9.154-0.032l0.436,0.003
			V9.181c0.862,0,1.525,0.214,2.001,0.627l0,0c0.24,0.211,0.419,0.455,0.545,0.729c0.118,0.274,0.184,0.571,0.184,0.899v12.478
			v0.284h-0.288h-2.729h-0.281v-0.284V11.918H74.26c0,2.401,0.013,8.497,0.016,8.497c0,1.327-0.386,2.229-1.231,2.902
			c-0.398,0.288-0.882,0.611-1.538,0.727c-0.751,0.131-1.444,0-1.68-0.583c-0.108-0.263-0.204-0.671-0.016-1.1
			c0.171-0.39,0.37-0.472,0.772-0.868c0.305-0.311,0.387-0.528,0.387-1.236v-8.865v-0.001l0,0c0-0.312,0.058-0.603,0.185-0.868
			v-0.001c0.015-0.036,0.04-0.079,0.065-0.127c0.119-0.211,0.283-0.404,0.49-0.575l0,0c0.241-0.207,0.535-0.358,0.869-0.461
			C72.905,9.262,73.269,9.214,73.675,9.213z"/>
	</g>
</g>
</svg>
