<?xml version="1.0" encoding="utf-8"?>
<svg width="66px" height="56px" viewBox="0 0 66 56" version="1.1" xmlns:xlink="http://www.w3.org/1999/xlink" xmlns="http://www.w3.org/2000/svg">
	<path d="M42 11.004C44.448 11.024 45.88 11.12 47.06 11.608C49.0205 12.42 50.578 13.9775 51.39 15.938C52 17.408 52 19.272 52 23L52 35C52 38.728 52 40.592 51.39 42.06C50.5785 44.0201 49.0217 45.5776 47.062 46.39C45.592 47 43.728 47 40 47L28 47C24.272 47 22.408 47 20.94 46.39C18.9792 45.5789 17.4209 44.0221 16.608 42.062C16 40.592 16 38.728 16 35L16 23C16 19.272 16 17.408 16.608 15.94C17.4196 13.9776 18.978 12.4185 20.94 11.606C22.408 11 24.272 11 28 11L42 11L42 11.004L42 11.004ZM30 27L30 15L38 15L38 27L30 27L30 27Z" id="Shape" fill="#3F75CD" fill-rule="evenodd" stroke="none" />
</svg>