<svg viewBox="0 0 16 16" xmlns="http://www.w3.org/2000/svg"><path d="M8 0C3.588 0 0 3.588 0 8s3.588 8 8 8 8-3.588 8-8-3.588-8-8-8zm0 1.067A6.925 6.925 0 0 1 14.933 8 6.925 6.925 0 0 1 8 14.933 6.925 6.925 0 0 1 1.067 8 6.925 6.925 0 0 1 8 1.067zm0 2.489a2.675 2.675 0 0 0-2.667 2.666.557.557 0 0 0 .534.545.557.557 0 0 0 .533-.545c0-.89.71-1.6 1.6-1.6.89 0 1.6.71 1.6 1.6.006.73-.37 1.104-.894 1.6-.263.248-.554.506-.8.845a2.189 2.189 0 0 0-.44 1.289A.557.557 0 0 0 8 10.5a.557.557 0 0 0 .533-.544c0-.264.077-.447.234-.662.156-.214.399-.441.672-.7.545-.515 1.233-1.069 1.228-2.372A2.683 2.683 0 0 0 8 3.556zm0 7.466a.71.71 0 1 0 0 1.422.71.71 0 0 0 0-1.422z" fill="#647179" fill-rule="nonzero"/></svg>