<svg width="16" height="16" xmlns="http://www.w3.org/2000/svg"><path d="M9.285 1.855l.055.135a1.425 1.425 0 001.956.81c1.211-.576 2.475.688 1.9 1.9a1.426 1.426 0 00.809 1.954c1.264.45 1.264 2.237 0 2.686a1.425 1.425 0 00-.81 1.956c.576 1.211-.688 2.475-1.9 1.9a1.425 1.425 0 00-1.955.809c-.449 1.264-2.236 1.264-2.686 0a1.426 1.426 0 00-1.955-.81c-1.211.576-2.475-.688-1.9-1.9a1.425 1.425 0 00-.81-1.955c-1.263-.449-1.263-2.236 0-2.686A1.426 1.426 0 002.8 4.7c-.575-1.211.689-2.475 1.9-1.9a1.426 1.426 0 001.955-.81C7.087.774 8.76.729 9.285 1.856zM7.997 5.27a2.727 2.727 0 100 5.453 2.727 2.727 0 000-5.453z" stroke="#717373" stroke-width=".8" fill="none" fill-rule="evenodd"/></svg>