<svg viewBox="0 0 15 14" xmlns="http://www.w3.org/2000/svg"><g fill="#b98107" fill-rule="nonzero"><path d="M7.492 9.582a.775.775 0 0 0-.77.764c0 .416.35.764.77.764.403 0 .77-.348.751-.746a.749.749 0 0 0-.751-.782z"/><path d="M14.619 12.29a2.594 2.594 0 0 0 .006-2.641L9.802 1.357A2.624 2.624 0 0 0 7.495.027c-.968 0-1.83.498-2.307 1.327L.358 9.655a2.614 2.614 0 0 0 .01 2.657 2.64 2.64 0 0 0 2.3 1.312h9.635c.964 0 1.83-.499 2.316-1.333zm-1.047-.599c-.268.459-.743.731-1.272.731H2.665c-.524 0-.995-.266-1.257-.715-.265-.456-.268-1-.003-1.459l4.83-8.298c.262-.455.73-.725 1.26-.725.526 0 .998.273 1.26.728l4.826 8.298c.259.447.255.985-.01 1.44z"/><path d="M7.3 4.216c-.366.104-.594.434-.594.834.019.242.034.487.052.728l.158 2.743a.563.563 0 0 0 .576.538c.314 0 .56-.242.576-.557 0-.19 0-.364.018-.556l.105-1.77c.018-.383.052-.765.07-1.147a.938.938 0 0 0-.07-.382.774.774 0 0 0-.89-.431z"/></g></svg>