<svg viewBox="0 0 28 15" xmlns="http://www.w3.org/2000/svg"><g fill="#899095" fill-rule="nonzero"><path d="M5 15a.667.667 0 0 0 .346-.13l4.473-3.879c.234-.17.234-.518.042-.732a.521.521 0 0 0-.732-.043l-3.602 3.127V.517A.522.522 0 0 0 5 0a.522.522 0 0 0-.526.517v12.826L.872 10.216c-.201-.206-.548-.148-.739.067-.191.215-.178.54.049.708l4.473 3.88A.521.521 0 0 0 5 15zM23 0a.667.667 0 0 0-.346.13l-4.473 3.879c-.234.17-.234.518-.042.732.19.215.53.231.732.043l3.602-3.127v12.826c0 .286.236.517.527.517.29 0 .526-.231.526-.517V1.657l3.602 3.127c.201.206.548.148.739-.067.191-.215.178-.54-.049-.708L23.345.129A.521.521 0 0 0 23 0z"/></g></svg>