<svg xmlns="http://www.w3.org/2000/svg" width="281" height="56" fill="none"><g clip-path="url(#a)"><path fill="#fff" d="M90.074 41.456c-2.103 0-4.053-.342-5.852-1.026-1.773-.684-3.319-1.647-4.636-2.888a13.56 13.56 0 0 1-3.04-4.37c-.71-1.672-1.064-3.496-1.064-5.472 0-1.976.355-3.8 1.064-5.472a13.284 13.284 0 0 1 3.078-4.37c1.317-1.241 2.863-2.204 4.636-2.888 1.773-.684 3.699-1.026 5.776-1.026 2.103 0 4.028.342 5.776 1.026 1.773.684 3.306 1.647 4.598 2.888a13.293 13.293 0 0 1 3.078 4.37c.735 1.647 1.102 3.47 1.102 5.472 0 1.976-.367 3.813-1.102 5.51a13.293 13.293 0 0 1-3.078 4.37c-1.292 1.216-2.825 2.166-4.598 2.85-1.748.684-3.66 1.026-5.738 1.026Zm-.038-5.244c1.19 0 2.28-.203 3.268-.608a7.835 7.835 0 0 0 2.66-1.748 7.752 7.752 0 0 0 1.748-2.698c.43-1.039.646-2.191.646-3.458 0-1.267-.215-2.42-.646-3.458a7.752 7.752 0 0 0-1.748-2.698 7.445 7.445 0 0 0-2.622-1.748c-1.013-.405-2.115-.608-3.306-.608-1.19 0-2.293.203-3.306.608a7.93 7.93 0 0 0-2.622 1.748 8.225 8.225 0 0 0-1.786 2.698c-.405 1.039-.608 2.191-.608 3.458 0 1.241.203 2.394.608 3.458a8.545 8.545 0 0 0 1.748 2.698 7.835 7.835 0 0 0 2.66 1.748c1.013.405 2.115.608 3.306.608ZM107.247 41v-3.99l16.454-19.836.76 2.242h-16.91V14.4h22.382v3.99l-16.416 19.836-.76-2.242h17.746V41h-23.256Zm39.864.456c-2.103 0-4.053-.342-5.852-1.026-1.773-.684-3.319-1.647-4.636-2.888a13.565 13.565 0 0 1-3.04-4.37c-.709-1.672-1.064-3.496-1.064-5.472 0-1.976.355-3.8 1.064-5.472a13.293 13.293 0 0 1 3.078-4.37c1.317-1.241 2.863-2.204 4.636-2.888 1.773-.684 3.699-1.026 5.776-1.026 2.103 0 4.028.342 5.776 1.026 1.773.684 3.306 1.647 4.598 2.888a13.293 13.293 0 0 1 3.078 4.37c.735 1.647 1.102 3.47 1.102 5.472 0 1.976-.367 3.813-1.102 5.51a13.293 13.293 0 0 1-3.078 4.37c-1.292 1.216-2.825 2.166-4.598 2.85-1.748.684-3.661 1.026-5.738 1.026Zm-.038-5.244c1.191 0 2.28-.203 3.268-.608a7.838 7.838 0 0 0 2.66-1.748 7.748 7.748 0 0 0 1.748-2.698c.431-1.039.646-2.191.646-3.458 0-1.267-.215-2.42-.646-3.458a7.748 7.748 0 0 0-1.748-2.698 7.45 7.45 0 0 0-2.622-1.748c-1.013-.405-2.115-.608-3.306-.608-1.191 0-2.293.203-3.306.608a7.93 7.93 0 0 0-2.622 1.748 8.23 8.23 0 0 0-1.786 2.698c-.405 1.039-.608 2.191-.608 3.458 0 1.241.203 2.394.608 3.458a8.545 8.545 0 0 0 1.748 2.698 7.838 7.838 0 0 0 2.66 1.748c1.013.405 2.115.608 3.306.608ZM166.254 41V14.4h5.092l15.694 19.152h-2.47V14.4h6.08V41h-5.054l-15.732-19.152h2.47V41h-6.08Zm37.955 0 11.856-26.6h6.08L234.039 41h-6.46l-9.728-23.484h2.432L210.517 41h-6.308Zm5.928-5.7 1.634-4.674h13.68l1.672 4.674h-16.986Zm26.662 5.7V14.4h11.514c2.381 0 4.433.393 6.156 1.178 1.722.76 3.052 1.862 3.99 3.306.937 1.444 1.406 3.167 1.406 5.168 0 1.976-.469 3.686-1.406 5.13-.938 1.444-2.268 2.559-3.99 3.344-1.723.76-3.775 1.14-6.156 1.14h-8.094l2.736-2.774V41h-6.156Zm6.156-9.424-2.736-2.926h7.752c1.9 0 3.318-.405 4.256-1.216.937-.81 1.406-1.938 1.406-3.382 0-1.47-.469-2.61-1.406-3.42-.938-.81-2.356-1.216-4.256-1.216h-7.752l2.736-2.926v15.086ZM264.259 41V14.4h6.156V41h-6.156Z"/><path fill="#0D2451" d="M-.593-.865H56.94v57.533H-.593z"/><path fill="#EF305E" d="M13.012 18.013H42.535l9.463 13.816 5.11 5.488V56.62H8.657l1.893-19.304 2.46-19.304Z"/><path fill="#EF305E" d="M51.832 17.152C55.79 27.729 48.106 40.38 34.668 45.41c-13.438 5.03-27.541.533-31.5-10.044C-.79 24.788 6.894 12.136 20.332 7.107c13.438-5.03 27.541-.533 31.5 10.045Z"/><path fill="#fff" fill-rule="evenodd" d="M31.484 36.903c10.75-4.024 13.372-12.473 11.84-16.567-1.532-4.093-9.058-8.745-19.808-4.721-10.75 4.023-13.372 12.473-11.84 16.566 1.532 4.094 9.058 8.745 19.808 4.722Zm3.184 8.507c13.438-5.03 21.123-17.681 17.164-28.258C47.873 6.574 33.77 2.077 20.332 7.107 6.894 12.137-.791 24.788 3.168 35.366 7.127 45.943 21.23 50.44 34.668 45.41Z" clip-rule="evenodd"/></g><defs><clipPath id="a"><path fill="#fff" d="M0 0h281v56H0z"/></clipPath></defs></svg>