<svg xmlns="http://www.w3.org/2000/svg" width="16" height="16" viewBox="0 0 16 16">
  <g id="vuesax_linear_calendar" data-name="vuesax/linear/calendar" transform="translate(-492 -188)">
    <g id="calendar" transform="translate(492 188)">
      <path id="Vector" d="M0,0V2" transform="translate(5.333 1.333)" fill="none" stroke="#3bc8f5" stroke-linecap="round" stroke-linejoin="round" stroke-width="1.5"/>
      <path id="Vector-2" data-name="Vector" d="M0,0V2" transform="translate(10.667 1.333)" fill="none" stroke="#3bc8f5" stroke-linecap="round" stroke-linejoin="round" stroke-width="1.5"/>
      <path id="Vector-3" data-name="Vector" d="M0,0H11.333" transform="translate(2.333 6.06)" fill="none" stroke="#3bc8f5" stroke-linecap="round" stroke-linejoin="round" stroke-width="1.5"/>
      <path id="Vector-4" data-name="Vector" d="M12,3.333V9a2.99,2.99,0,0,1-3.333,3.333H3.333A2.99,2.99,0,0,1,0,9V3.333A2.99,2.99,0,0,1,3.333,0H8.667A2.99,2.99,0,0,1,12,3.333Z" transform="translate(2 2.333)" fill="none" stroke="#3bc8f5" stroke-linecap="round" stroke-linejoin="round" stroke-width="1.5"/>
      <path id="Vector-5" data-name="Vector" d="M0,0H16V16H0Z" fill="none" opacity="0"/>
      <path id="Vector-6" data-name="Vector" d="M.495.5H.5" transform="translate(9.969 8.633)" fill="none" stroke="#3bc8f5" stroke-linecap="round" stroke-linejoin="round" stroke-width="2"/>
      <path id="Vector-7" data-name="Vector" d="M.495.5H.5" transform="translate(9.969 10.633)" fill="none" stroke="#3bc8f5" stroke-linecap="round" stroke-linejoin="round" stroke-width="2"/>
      <path id="Vector-8" data-name="Vector" d="M.495.5H.5" transform="translate(7.502 8.633)" fill="none" stroke="#3bc8f5" stroke-linecap="round" stroke-linejoin="round" stroke-width="2"/>
      <path id="Vector-9" data-name="Vector" d="M.495.5H.5" transform="translate(7.502 10.633)" fill="none" stroke="#3bc8f5" stroke-linecap="round" stroke-linejoin="round" stroke-width="2"/>
      <path id="Vector-10" data-name="Vector" d="M.495.5H.5" transform="translate(5.035 8.633)" fill="none" stroke="#3bc8f5" stroke-linecap="round" stroke-linejoin="round" stroke-width="2"/>
      <path id="Vector-11" data-name="Vector" d="M.495.5H.5" transform="translate(5.035 10.633)" fill="none" stroke="#3bc8f5" stroke-linecap="round" stroke-linejoin="round" stroke-width="2"/>
    </g>
  </g>
</svg>
