<svg version="1.1" id="Layer_1" xmlns="http://www.w3.org/2000/svg" x="0" y="0" viewBox="0 0 267 53" xml:space="preserve" enable-background="new 0 0 267 53"><style>.st2{fill:#221f20}.st4{fill:#fff}</style><g id="Symbols"><g id="Artboard" transform="translate(-90 -106)"><g id="Ru" transform="translate(90 102)"><path id="Rectangle" fill="none" d="M0 0h268v57H0z"/><path id="Fill-16" d="M17.1 8.8h-2.4c-3.7 0-7.2 2.4-7.2 9.5 0 6.8 3.3 9 7.2 9h2.4V8.8zM13.3 31L6.1 47.2H.8l7.9-17.3C5 28 2.5 24.6 2.5 18.2c0-8.9 5.6-13.3 12.3-13.3h6.8v42.3h-4.5V31h-3.8z" fill="#f33"/><path id="Fill-18" class="st2" d="M110.1 32.3c0-9.3 3.6-15.3 10.6-15.3 2.7 0 4.2.7 5.5 1.5l-.7 4.4c-1.2-1.1-3-2.1-4.9-2.1-3.3 0-5.7 3.7-5.7 11.2 0 7.4 1.8 11.7 5.5 11.7 2.2 0 4-.9 5-1.8l1.1 3.4c-1.6 1.4-3.5 2.2-6.2 2.2-6.4.1-10.2-5-10.2-15.2zm-13.5.1v14.8H92V17.4h4.6v13.8l7.2-13.8h4.7l-7.4 14 8.5 15.8h-5l-8-14.8zm-21.7-2.8h7.6c0-5.1-.8-8.8-3.5-8.8-2.8 0-3.8 3.5-4.1 8.8zm5.1 18c-6.2 0-9.9-4.9-9.9-14.1 0-9.6 2.7-16.6 9-16.6 5 0 8.2 3.7 8.2 13.8v2.5H74.8c0 6.7 1.9 10.3 5.6 10.3 2.6 0 4.7-1.2 5.9-2l1.1 3.5c-2 1.7-4.5 2.6-7.4 2.6zM60.4 21.1h-5.1v.5c0 6.3-.3 15.4-2.8 21.8h7.9V21.1zM67.3 53h-4.1v-5.9H50.4V53h-4.1v-9.6h1.8c2.7-6.3 3-15.5 3-23.5v-2.5h13.8v26h2.4V53zM43.6 17.4v29.8H39V33.8h-6.9v13.4h-4.6V17.4h4.6V30H39V17.4h4.6z"/><g id="Group-22" transform="translate(138 .307)"><defs><filter id="Adobe_OpacityMaskFilter" filterUnits="userSpaceOnUse" x="2.8" y="4.6" width="23.2" height="42.3"><feColorMatrix values="1 0 0 0 0 0 1 0 0 0 0 0 1 0 0 0 0 0 1 0"/></filter></defs><mask maskUnits="userSpaceOnUse" x="2.8" y="4.6" width="23.2" height="42.3" id="mask-2_1_"><g filter="url(#Adobe_OpacityMaskFilter)"><path id="path-1_1_" class="st4" d="M25.9 4.6H2.8v42.3h23.1z"/></g></mask><path id="Fill-20" d="M6.8 17c-.6-2.2-1.1-4.1-1.4-6h-.2c.1 2 .2 4.1.2 6.3v29.6H2.8V4.6h3.4l7.2 27c.3 1.1.7 3.3.9 4.9h.2c.2-1.6.7-3.8 1-4.9l7.2-27H26v42.3h-2.8V17.3c0-2 .1-4.1.2-6.3h-.2c-.5 2.4-.9 4.1-1.4 5.9l-6.3 23.5H13L6.8 17z" mask="url(#mask-2_1_)" fill="#221f20"/></g><path id="Fill-23" class="st2" d="M182.3 39.7v-8.2h-3.2c-4.9 0-7.3 2.2-7.3 7.4 0 4.2 1.8 6.6 4.7 6.6 2.8 0 4.7-2.6 5.8-5.8m.1 3.5c-1.4 2.8-3.5 4.6-6.5 4.6-4 0-6.8-3.2-6.8-8.6 0-6.4 3.5-9.7 9.9-9.7h3.3v-3.7c0-4.5-1.7-6.5-5-6.5-2.5 0-4.8 1.2-6.3 3.3l-.8-2.7c1.2-1.5 3.7-3 7-3 4.9 0 7.7 2.7 7.7 8.6v16.3c0 2.1.3 4.4.7 5.5h-2.5c-.2-.9-.5-2-.7-4.1"/><path id="Fill-25" class="st2" d="M205.9 31.6c0-7.8-2.1-12.4-5.6-12.4-2.7 0-4.9 2.8-6.2 6v16.7c1.2 2.4 2.8 3.6 5.5 3.6 3.8 0 6.3-4.5 6.3-13.9m-11.7 13.5v11.3h-2.8v-39h2.4l.2 4.9c1.3-2.8 3.5-5.5 6.8-5.5 5 0 7.9 6 7.9 14.6 0 10.9-3.7 16.3-9.2 16.3-2.3 0-4.2-1.1-5.3-2.6"/><path id="Fill-27" class="st2" d="M216.8 47.2H214V17.4h2.8v14l10-14h2.7l-9.8 13.8 10.5 16h-3l-10.4-15.4z"/><path id="Fill-29" class="st2" d="M234.3 30.6h10.8c.5-7.9-1.9-11.5-4.9-11.5-3.2 0-5.7 4-5.9 11.5m6.5 14.8c4 0 6-3.2 6-3.2l.9 2.2s-2.2 3.4-7 3.4c-6.3 0-9.2-5.7-9.2-15.5s3.7-15.5 8.7-15.5c5.1 0 8.5 5.4 7.5 16h-13.5c.1 8.1 2.2 12.6 6.6 12.6"/><g id="Group-33" transform="translate(249.429 17.092)"><defs><filter id="Adobe_OpacityMaskFilter_1_" filterUnits="userSpaceOnUse" x=".8" y=".3" width="16.6" height="29.8"><feColorMatrix values="1 0 0 0 0 0 1 0 0 0 0 0 1 0 0 0 0 0 1 0"/></filter></defs><mask maskUnits="userSpaceOnUse" x=".8" y=".3" width="16.6" height="29.8" id="mask-4_1_"><g filter="url(#Adobe_OpacityMaskFilter_1_)"><path id="path-3_1_" class="st4" d="M17.4 30.1V.3H.8v29.8z"/></g></mask><path id="Fill-31" mask="url(#mask-4_1_)" fill="#221f20" d="M10.5 2.6v27.5H7.7V2.6H.8V.3h16.6v2.3z"/></g></g></g></g></svg>