<svg xmlns="http://www.w3.org/2000/svg" viewBox="0 0 282 107.34"><defs><style>.cls-1{fill:#231f20;}</style></defs><title>Beru_logo_product_CMYK</title><path class="cls-1" d="M281.34,58.09H265.16V1.28h16.18Zm-16.94,9V84.71H282V67.1Z"/><path class="cls-1" d="M31.91,26.27A31.92,31.92,0,0,0,14.6,31.44c.67-1.88,1.24-3.45,1.64-4.5,2.29-6,7.66-9,14.17-9.62l26.32-2.4V.07L40.47,1.92C12.38,4.62,0,11.5,0,50c0,24.6,12.59,35.89,30.69,35.89S60.78,74.62,60.78,56.1,48.52,26.27,31.91,26.27Zm8.64,42.88a12.85,12.85,0,0,1-9.92,4.23,12.64,12.64,0,0,1-9.8-4.28Q17,64.81,17,55.89,17,47.33,20.83,43a12.64,12.64,0,0,1,9.8-4.29A12.76,12.76,0,0,1,40.55,43q3.87,4.29,3.87,13Q44.42,64.92,40.55,69.15Z"/><path class="cls-1" d="M164.74,26.27c-7.84,0-13.84,3-18,7.85V27.49H132.23v79.78H148V79.38c4.07,4.09,9.66,6.54,16.77,6.54,16.62,0,27-13.35,27-29.82S181.36,26.27,164.74,26.27Zm6.82,42.89a12.63,12.63,0,0,1-9.8,4.29,12.76,12.76,0,0,1-9.91-4.29q-3.87-4.27-3.88-13,0-8.92,3.88-13.15a12.84,12.84,0,0,1,9.91-4.23,12.63,12.63,0,0,1,9.8,4.29q3.88,4.29,3.88,13.2Q175.44,64.88,171.56,69.16Z"/><path class="cls-1" d="M236.91,27.49,223.23,66,209.16,27.49H192l23.08,57.87c-2.82,4.74-6.85,6.11-12.15,6.11h-6.37v14.6h8.11c11.3,0,21.37-6.34,26.6-20.35l21.59-58.23Z"/><path class="cls-1" d="M125.11,55.93c0-16.59-8.75-30.07-28.43-30.07S66.42,39.34,66.42,55.93c0,17.45,11.8,30.73,34.16,30.73a42.11,42.11,0,0,0,19.33-4.49V70s-6.19,3.75-16.81,3.75c-11.81,0-19.2-5.42-20.09-12.63h41.86C125,59.67,125.11,57.4,125.11,55.93ZM83,49.64c.33-5.57,5.65-11.73,13.54-11.73a12.88,12.88,0,0,1,13.11,11.73Z"/></svg>